<mxfile host="app.diagrams.net" modified="2022-07-25T19:12:12.940Z" agent="5.0 (Macintosh)" etag="6yri-z4xpLOmWE8r_Kei" version="20.0.3" type="github">
  <diagram id="F3KGy2tZjZr16VShQg7X" name="Page-1">
    <mxGraphModel dx="2226" dy="769" grid="0" gridSize="10" guides="1" tooltips="1" connect="1" arrows="1" fold="1" page="0" pageScale="1" pageWidth="850" pageHeight="1100" math="0" shadow="0">
      <root>
        <mxCell id="0" />
        <mxCell id="1" parent="0" />
        <mxCell id="yoXyc7ZYWqOekjBNXndq-1" value="" style="shape=image;html=1;verticalAlign=top;verticalLabelPosition=bottom;labelBackgroundColor=#ffffff;imageAspect=0;aspect=fixed;image=https://cdn4.iconfinder.com/data/icons/socialcones/508/Github-128.png" parent="1" vertex="1">
          <mxGeometry x="125" y="161" width="128" height="128" as="geometry" />
        </mxCell>
        <mxCell id="yoXyc7ZYWqOekjBNXndq-8" value="" style="swimlane;startSize=0;" parent="1" vertex="1">
          <mxGeometry x="425" y="129" width="219" height="200" as="geometry" />
        </mxCell>
        <mxCell id="yoXyc7ZYWqOekjBNXndq-2" value="" style="shape=image;verticalLabelPosition=bottom;labelBackgroundColor=default;verticalAlign=top;aspect=fixed;imageAspect=0;image=data:image/png,iVBORw0KGgoAAAANSUhEUgAAAOEAAADhCAMAAAAJbSJIAAABF1BMVEX////bOSfLNijj4+LbOCbbPy/bPCrXAADbPCvSNyjaKRHLNSfyzMrompjxx8baJSTaHh7plJLj6OfbOzvFAADgravLOi3fl5H/+/r34N/+9fTMPzLKLBrdUEzaJhbUa2fm8O/NKBXgbWj6xsHRdnTgNR/OKhfaMCDz8/L+7ev34uH3urTv0tDxu7fZHADzsq3/2NTvc2frTDr1lYvlYlXoMBbrVEXnQC3wnJT0ioDqXU/rqKXYGw/ieHPrqqjJJiHlgYDgZGPji4TbNDXOSkrmaV7uXEzofHL1p6DvZlnic2njeXrmkpHcRT7iamvKNzbQWFfeS0Xiurfizs3fpaPPU1PouLnMMTLQYGDfW1rQdHDNSkbahYL4PS2sAAAUiklEQVR4nNVdCVvazBYGOllIENRSTGKIRS7EBAgo1qWCRazV1mqLtbbc+v9/x51sECAJM1kg932+Pu2nbC/nzNlnJpWKH5wgKIqq8rlqtaGjWu3wqqoogsCt4N1jhtLJN+6654dfjk5rEIwJ/Z+nR18Oz7t3rXxHWfeHDIxOu/vt+ORUpyYDANLptP4nbf0NfyLrRE9Pjr912511f1hMKHz1/ITRPtRk2SblDSDLtQ8ac9Kt8v8n0uy07r4eMVBsaXIpOxsk5Fljjr7eVRMvTL59e3JaQ5CcB8vTk9s2v24SnhD4uy9QM4Owm9IEUGM/3vHCusm4AErvlJExNNNbljXm9LaRNEl2uie1cNKbAdTXk26ClqTSONIipGeRrGlHjWQYV/7sC9TOOCAzH8/Wr6wqVM94+BkcobKq66TH8edQPaPWTycAVNZzfm3hK9+laxEYz2WoHXXXo6vc2QkTp/imAMyXs9WLUWh8WBE/k+OHxoqDgOphDcSvn1PAWOewukJ+wtlpbYX0TNROz1YlRq51yqycnw7mtLWS5ah2tZUqqAOA6a4gyql+XL2CTlH7GPdqFKAA10gQRjlaN9bV2LmprUlBp6gdxph0VI/WqaE2akdxaaoy/LBeDbUBPsSjqcrhenyEG5jDGGwq/1VaNy8HmK+RB+ONGLPAIKjVWpHy4xoJWYJTgA+NKBneBaqAxgtwehEZP+5WWzcdV2jnEYWpQjc5RnQWEcU33HkS3Lw7alFIkfuaVAlCkMxhaIrCeYIJQjDDkIrKdZOrohAgmxFDFqkSakUtQIKZTGUQhuBdogmmdYKZTDGEX2wkK1KbAzAJZjLZwAFc8kI1JyYEM6wckCIfeccsUkwIQorpQJmG8jXJZhQ4CGYy4k2AfFE5TFI+OI9ZgpDiN3y3OEy0p58jmMnUh7gEqx/WTcIH8xLUIWGWpzpHCbYybgQz7ANWkVG4SbKVcSOIuxSTHI26StBYimfoBKsJDtY8CcLwLY9KUP2Y4GjNm2Ame4zoFZOcMflIUF+KiJlUK7me0J8gzKSQXIZwmlxHsYRgJvuAIsSziERI0jRGJw7oj4fPIH0GkJZJUBfixnKC1dPw5ABJykAfWZcBoJc+mqYBfJxsTbkDCNL1u0EgmMkQuaU6ehjezABC1sr3WxcXG4OxJEGx+DyUJtKSxhBX9wP4ePiMrUF/XNN6EkGk55+GQjAj3i7z+40I7ChBjVqKsSA4odmnZNqTIkn0KGr/IqcKnL2AOEHhW98fKCpNzH4XSAQhxSXZMBc+rSflwozn5R811/WoqzLzMMi72walVQaSY+YDlSBM+P0Z3jFh+/SkPGrOfWt9zU1RCbk3vvBx0ULu+7VG289EJQiNzZ0fQf5LeE9xvVBREPraoqKS1NuXZUuGH1IaYWw/QSeYYY99JlK58D0Yuufy+tyjPK8aTBmpeiT0ZfhUHIIZVvSJwPnQWSGpuToklXI+CC6vQh+1sNIq9wgcgnqm6F2XiqDLNJp88tzGxuVEDQe9qV8EdG0TY0BN2KdKLBZF74qGEj5pYmwR5t5SOjYsJvw0VAG0VMYrG738wSII0ygvBQm9CgFBW3ZULQACgqYsxsKjTREQ0gC3Ltb8gSlEj5UYgSElLCWFpsW0ngRlfZ1DySY4kSsOxX8sDkcvc3oXusZN1m7MT98sEOZrEbYQ24yxEAG5iRAbL0L5iSVF0bVZo4TP7Elm32SY37QYktrAfPWXTT0IA0QwgvDT/fiEwdA922+Ez5oWGdIOhkBX0UHQfmbzTwZDjHW3VPgoguKMPDaNCH9tMoSULs1Xv9C1lGTKAflB5CoYTiP7cfEFOhHU14BtaVIDSacIYIhj2c2hrG+A8fHFy3FRxKDILNaHoyg/AaJgJaAKzPBoGnoLS4TClawvwpcQBFOpn2IJXU0XHAZ/Ekl1hrHDCeW+wDCbYzuPyjFQnhp292QW6i66DNnyvLpEkfnqeLA9EddstfMT196HURu4DjvB9PwJXU/nW9/CbQiGDumTve9uH42naJguXc7+kDs4OOCwTKvwD1mGGXFu0IYPVkLUE1S9jATsTBUaT5fSunKtb9R+nLzlwcEbJyBRRIrNIvJKZIlZNb0L4AwBne5p5cf7/uOY0QAxOTBhodql7DMkIKxxAu5g+40LDg6QKGIYm3p75pkBtolAcVHDnCLoyG1IlF04AmBOitxYIgEgR7oIOVd6FkkEhi/oQszezHzL2M4QkKAwdCrXBkzGLTFSW47AV2htMjAKN7T3wJseIkfhL3rwxjgjt/YHzAIUIGUw59xyZcmqxhC90UaTs/hdSUD/MZC4pQTfvNleyvEZXU0rzjFpfEsKqOb8mysFqxoD5Vt7a6pqbtMIbWBsM0j5k3v/fhvi/fslDPk/yE5RHDiehu3uyU0Xk8kT0zTX+n3OTqOYJ58V+GZ7+9fzYDwajQfPv5aIcU9EJMg6nT52r4KUXJOgywLtwVAe/fIj+Ov1WutJDCP1tIfXBeWYwUsRWYjEVAp3mEoKiOuJLVFyucmKFkYeMgRy309Bnwuy3o2BgH5VKvg2q9XiLiJBRx6sHGImTpOcCLo6vd40UYe85TPmGdLSs4+Sfqdmek1L6hw/6qgMs5PpDBW3TEpQlgh5aD8JgpZky8sLPTu0mWEIcw7vZbi9sznXg6F7fhOj/6mgWlP2wdauKmZAQ9as7gc3kI2FR8pX1rd1JdFuDOm3v7wYbj9JC10NgvLJI5/Rnb5o63sXc9sk3eubT2zaW/JJzYrkhz03hul02VtH6YWKP3y9B+80JI/OcJIkfsFchnTPSvRaFGn/xLKtF2YnbZ5h7ZunCN9RxOIaoTe9uxpN9MJi9th6Du7hCLSdIl1OGW5ZP3FlSGuvnsvQdb4M2l5PISr/kBmyovkU7AoN3bu3FMZ+Jq1ZxnXLVUsJysuUbv+6dhEhfIFrzxaZ8huV4KRa08ANSknJKpkpZTP7BbRdYurjMnySXEcZyJ6nUxQwisOSqexn+JkTZTmsVo/Qv51JZTv1ILtpKUG982L47N50JjTPhSj8RWdYN/vB37ALpQRlv3++wEgSU7ADgCZl10lRGe64eyq6d7nIzWK4h85QvDWecYPNkKw92lEHfzEYbEwiSbtNGAHDSGSY3dcNVge/jggIabpMHMUkvkDYDwjLkPJmiLEOzfQiH2AICqRHLrZOGXtkT/gMAeEZ1SifMfoXRnrRCjLmRUrjxei4PxmcCcsQTMLARag47VKDIW7qZILW7uc/w9Z0MigsQ5Lxjr2bqCmwjmzbmJcNUioFNDOacVnNsjb13aEZlr1HNTDKbeZMbdBtvoCWme85S45C83vBOb4WkiHhbWdSqR3k7ElnOORCDCOSQJYfzXcdFKSZc4ecDNO4DAFcAd4EU3tYDG+FlPI1eGeUtsO3fWkmiSXJKUMaAIDFkEzLfo1iTsRahzdKSgnRVpsEqPu9iRUFBEFKPYl64QRB4PIFGQL4MgQOpAlC1jb8elQ8ep0Ggv2opNQQY91ThpJdKSVoiqKI/kZrUNax1TSQUw/c2xXbOzLhRJqixr6FKJwUP2MWMtQQndFZhoBOA+a6fGGanw34I5JxKTrqTTUd2ybD67cOjMYbS/rgOA02nWFWTfEhGocOLaWh+Hq98UbT1rAtCUrUjeEsFF5VeR7+Z0BZ2mZrfsJoBENAhs1IGEokIVFXeYcXgwzdZRgOOzh2BkLkU7loGNLM/mytOh6GWCGbwbCTqoaY9ZoypMrz89rxMMSzM3qlJoddLHVlOB4sRFnxMPyEKUK2Hg1DwcUAxsIQV4TG+Fc4hiP9fZX+ihiqfzCnhcMzlGm4+tTxYrc0HobfceYTI2FoDMg2KTA/KRMTw5ciNkG2ng9lS2FI3czRMi1fLXrq6BkKf3BV1LSlnTDDUAQ1HNVIQBQW1TRyhtwexuDeBNAfhmFI9gZCWR+rlMexewvuFWf4coIsHyourR0rkAmpd9f6cTPEmdpzMlRhbhF0HZrKaQ6tk9rjXFIXMcMctic0oOcWSuD80BrSu9Ar+YCWChczHKNl+FLBSykmDIkQOT7J7Btvzo31bgwgATW+cHj+SBk+Y42xOxnCHD9wnQbY2/DUETCabLQsXQ9yjvwwMob4wZoNvU4TdHaWlqbTKleMudmXJhhK67dULlKG6l/0IaEFhrdC4BMUyOkutZSwLwFjZzJM9EFPu76/5FMbUTHM/RMDWVEDer00WM17upHCpNiSKdKqCOubz6Xrrb4cCUPhtZ4JqqIZ6xyJdiAZAmbuo1yMGBmQpHmnGk1ovXQEDJV3RZx9JC4M9UHhQL0nenGvqNJ6BJpEEqTJkQ7PUHj+XWFDETQn9vNHQUQou6SEAn85piiGmMwehGKo7nyG/MLQy1jdtQA94HRavveo+ymt/beS7X+CMuSE5vPPYrEUTn4Z3R3q4yYB+vh+gwQpTm3dP1hfmnzz9ObADRw3PUTBCUFQ+PzF61+xWNkNKz+I7E/DPeM3nwBx7Tvmqh7bX5oslV/8x7vf7/zcm+Dn58///tQrIsuWIuAHDY2ZEAQ4roV06XFP0aKmWkGnqSvBb4b9/X+L4gRsaXd3NxpyBqzRvRbuTFSacN91b+Fik3bOUxLSlbqwTcbBUJ8XLVnQp7PDrj0nrJko7Lk26O59ttldbs7OcQFSNqZaPEi+R5+IxYe9CxE7qJnMCLuAtwah9Q6xbDaG9a0IJrhFknEytGcTU/hbnCnPZcjtWwOxvdH9/ZVkNvdpx8zvvCTjZDiZLz3DnBEma7SnCHOyOZy/eakInJAbGwMaJDNwPmZGknEynMwIVzHdBSldeYpwYJwsAAp24jHQaMO7zIdABythaO/oVjBn9ScTtItQxsZLSRNLxF3rp6845+CmktyOmSE72dAqYO63mFqOBfDGaD5wzGxt6EIkpS1XiR/EynC63wJ38It23wqrI2d4Htnx+6b+E+AzQBIfQ8fZEZj7nnwZknMBd9PwRT4MX2Nj6Nj3xH/EWog+Wto0ZejQyZwpw9fVy3BmwzrebJsPQ9XIKoBj8M7YY0Iy3gdwYU1x4cC5/xBzXN/HWwhXOkNSm9bhNs19T95jQH/jYlhxbnXG2wdMMg+en3eLMaVsnx5xZZSLibfeYd6/ekwMZ/YBpzDPX6c8Py9vbVajBjlFUC+uDT/kl4sI+G1PNExCNhNtrByRprwHXK1TTegeMx4TlBl6g57349Xg5V5/VGb342Od1AYl5H2GpkCZoTdpHNOp/xNMzsNyQw5r1hAd82cq4E0KE74feRPMbiikZU/3CbETuCfhD3H+RDG8qqlb436CF0meHj4K1ZR69ZkX5f5iDqqhYuFaDyyn72sbodu/pkjCLn4z1JZfTUf9Ec8yXDyfJnWGc64n4b1px8BlebOmDwfr/Tb/u9HfxeQNXU4W5LFcou8oNoSQ37p/vHoctpcMxHL/wR8CQoLLOVGpLzi2BjwsPbvSmPNe9iAVfUMoFrIjlzfDGo6iqWiu5gve3fVH3W0VYbW7Sdk7cMNBKR4lZd1P2MfJg32dPjqaMbl70d1fq1hZIsA8hNQNmIP3yHBxFSZwHAZMiMJfdfru08pchQkF685t+4zE4BB+x+Qqip4+GGssI/QRerFVaETvD4Z31hDpNhqMAYzD17DA7vqEGXhb80EoPRV+xsIPitAvEFbwim7SXnCKwh7ySTp4YD/6RopYx5plS5WdwAx3igGH8Zah7nuuPk4vUT8KvoR+AdEcnmJahBlWXhIMIw+2G2fds7uVYIeuBp0XXQ7XiNQJ5FFF86x7NvMnCMV3+FtDEIFwN1kOaURqeltBqfKETfAlvpYhgbBs7hCMjeM6Bna36FeHcYHwGlcBEe2uoBR3sjyLcl7HwJaKf3HuyFT/BtpWgIQsgfRl55edGzV/oUZJ/IxuUp/+BdkYgogKYjawJLJZvDGEzRT/+hecbMQpQPR715Zl+243hpTE3Z3lHNWdUowCzGT9bpiZhd+UlMedLyVW/PHsvxyV5z9iJkYJZooYV5F6FzQ8L7VhS7vF4n9zHiQ5Jb9XLO7GyS9T76ITTAnfvCj6XGrDljKVyu/XJ3Xengnq0+vvSiVW+cFFuI/ltDzukl12LVEJKqv44/frc041D4lW1Nzz6+8f+lxljAtQB1vCLI3l3O4DRrp3qbTLFmfBRjHuuwy49wG7z9Wi3bvEQlHqg7AZna0xEBurdprAv9MZhuDzFLGuBmPn/xEvxP1AV4/XAhNcNbJB7lZPzZ9ck2CCrNvuDxTkHdlwkiXIMo3lZNwxnXdLMsHFhjYGGlryVTRTvAh6w5KOoZZ4CVZuQ/BLmZlUogmK3TAShBDOtESraOU8dJOPO2fWzcIHlZuQEjSkeB7TTE8EEM8jIAgpdivrZuKBSjd8H9oAdxvXhGQ4FG8jkaCBjexqAmgsZKM8/IZrMUmjyDLt6CSooyEny2dk5cCxqBeax0kyqeJxmJsUPaDexNS0DYD6DXJlFAfKMCGLkZWGgRJeBLSIJGiqSISfVfJELgGaWr+JYqLOE8p5cb2ayha7cWmojVZ5nZoqlmPUUBvqsLIuMbKVYSw2dB5cg17PaqzTjWjDGG8IwzUYVZHYiiiTQEJ1v75aVWXr+9iNiXAQ2swKObJ1pr1KAVocz0biajiy4uhs9fx08MPsKpajmB3GEGajgWveFmOWIysWb5ursqCu4IejGNcjWx+tT35TjmejejzZcbY+Ols/Px1Km2AiV1ZWZIh23CEoBqrDUTZCkqwojoYr9n9L0WnfZiPSVvg6t22X3XVrhwBXJFMPKUlWrDNw9a3H/aGgc9fX1TXggbGsmB3175IovRl0WhvHRF3ErCGzWbFOHG+0Ek/PhMK3zh8qjCwaKutH1fi9KMpM5eG8xSfIdKKAq152944fiKwoQoHO0oT/y7Ks8Rvi4Xive1lda9gSApzaybfPhv2bEZGFalivmKhDJc4SJzf94Vk731H/X9lNwQmKoqp8p9pqtBsN+KdV7fCqqijLd0JHgP8BLla8mPJQ3ZcAAAAASUVORK5CYII=;" parent="yoXyc7ZYWqOekjBNXndq-8" vertex="1">
          <mxGeometry x="11" y="134" width="57" height="57" as="geometry" />
        </mxCell>
        <mxCell id="yoXyc7ZYWqOekjBNXndq-10" value="" style="shape=image;verticalLabelPosition=bottom;labelBackgroundColor=default;verticalAlign=top;aspect=fixed;imageAspect=0;image=https://crossplane.io/images/logo.svg;" parent="yoXyc7ZYWqOekjBNXndq-8" vertex="1">
          <mxGeometry x="134" y="4" width="185" height="40" as="geometry" />
        </mxCell>
        <mxCell id="yoXyc7ZYWqOekjBNXndq-31" value="&lt;font style=&quot;font-size: 15px;&quot;&gt;CrossPlane&lt;/font&gt; &lt;font style=&quot;font-size: 15px;&quot;&gt;Manifests&lt;/font&gt;" style="rounded=1;whiteSpace=wrap;html=1;fontSize=20;fillColor=#f8cecc;strokeColor=#b85450;" parent="yoXyc7ZYWqOekjBNXndq-8" vertex="1">
          <mxGeometry y="73" width="120" height="40" as="geometry" />
        </mxCell>
        <mxCell id="yoXyc7ZYWqOekjBNXndq-32" value="&lt;font color=&quot;#FF6666&quot;&gt;GitOps Instance&lt;/font&gt;" style="text;html=1;strokeColor=none;fillColor=none;align=center;verticalAlign=middle;whiteSpace=wrap;rounded=0;fontSize=15;" parent="yoXyc7ZYWqOekjBNXndq-8" vertex="1">
          <mxGeometry x="68" y="147.5" width="60" height="30" as="geometry" />
        </mxCell>
        <mxCell id="yoXyc7ZYWqOekjBNXndq-33" value="&lt;font color=&quot;#3333FF&quot;&gt;Crossplane &lt;br&gt;Instance&lt;/font&gt;" style="text;html=1;strokeColor=none;fillColor=none;align=center;verticalAlign=middle;whiteSpace=wrap;rounded=0;fontSize=15;" parent="yoXyc7ZYWqOekjBNXndq-8" vertex="1">
          <mxGeometry x="60" y="14" width="60" height="30" as="geometry" />
        </mxCell>
        <mxCell id="yoXyc7ZYWqOekjBNXndq-4" value="" style="sketch=0;aspect=fixed;html=1;points=[];align=center;image;fontSize=12;image=img/lib/mscae/Kubernetes.svg;" parent="1" vertex="1">
          <mxGeometry x="435" y="73" width="50" height="48" as="geometry" />
        </mxCell>
        <mxCell id="yoXyc7ZYWqOekjBNXndq-9" value="&lt;b&gt;&lt;font style=&quot;font-size: 20px;&quot;&gt;Kubernetes&lt;/font&gt;&lt;/b&gt;" style="text;html=1;strokeColor=none;fillColor=none;align=center;verticalAlign=middle;whiteSpace=wrap;rounded=0;" parent="1" vertex="1">
          <mxGeometry x="495" y="86" width="94" height="30" as="geometry" />
        </mxCell>
        <mxCell id="yoXyc7ZYWqOekjBNXndq-12" value="" style="outlineConnect=0;dashed=0;verticalLabelPosition=bottom;verticalAlign=top;align=center;html=1;shape=mxgraph.aws3.cloud_2;fillColor=#F58534;gradientColor=none;fontSize=20;" parent="1" vertex="1">
          <mxGeometry x="847" y="118" width="75" height="75" as="geometry" />
        </mxCell>
        <mxCell id="yoXyc7ZYWqOekjBNXndq-13" value="" style="verticalLabelPosition=bottom;html=1;verticalAlign=top;align=center;strokeColor=none;fillColor=#00BEF2;shape=mxgraph.azure.cloud;fontSize=20;" parent="1" vertex="1">
          <mxGeometry x="943" y="123" width="91" height="55" as="geometry" />
        </mxCell>
        <mxCell id="yoXyc7ZYWqOekjBNXndq-16" value="" style="shape=image;verticalLabelPosition=bottom;labelBackgroundColor=default;verticalAlign=top;aspect=fixed;imageAspect=0;image=data:image/png,iVBORw0KGgoAAAANSUhEUgAAALoAAAC6CAMAAAAu0KfDAAABBVBMVEX///9ChfT7vAXqQzU0qFP8/f9EiPT1+f/0+/bI2vv8/vz7ugDE5Mw1q1Z3wop/qvc1plpBh+jqPzA9gvT/9+D7vwC/tyb/+Pj85ePykotWq0erX4r802D/9Nn2tK/sVkn5zMmIsPjl7v1alPXsTTD6sgb//PJMqkz73dva5v3609BRgOb5qgr/+Ohjmvb96bS70vtwofb7yDmvyvr4v7r0pqDznJbxiIDwfXTuamDrSz7ucmntYVbhR0BXfdyfv/n+5aX+8Mv802yNouGqe6LvaSXzgxv2mRH1jRbxeB/uWCnublb92Hv7zaT8zlL93pFyumeY06livHro57bX79+14cFQsWiY4pmiAAAIyklEQVR4nO3cfVfiRhQHYAIlQOKKJdiEFonALgXKm0gAAy0v7b5ZK9Xqfv+P0gmIBAi5dyaTYHvy+2PP7p5dfbjnZjKZGROJhAkTJkyYMGHChAkTJkyYAKK+5tgSdFRVq/cKhtHPrdLvG0ahV9fe+EdQqz0jNxje6LppmrFVyO9MXb8ZDvpGr/o2+arW6w9GYzOWIYntxPor0xyPBv2e9sb4arWQG+kWexe9/QFipj7KFarH5m6i9QY3OpG5sV/5sRjR995G6av9kY5j2/X945f+cmC1NwX8pXXM8aB+XPiQruBbtdeHx8NXCdxT9OFx2kbLeYQv8TktcLhaGHuHWxkXAh5tqkPWHt9NJhZo16iGyQm+xJtGYIWvDtzvmtT22CCgwvfGXOFL/M1lAHDV0LnLiV33v2m0HK/rc8du9n0eJqsDf+TW3MDfIb4+9AlO6L/+9Hst7hdcvRz5Kf9NSftl910uCD7ZA5ALPtW97r9csOrOX1719QpdywWhyN2uDYKRE3uJszznF3xXLogTrna+U0VXuaCI1wmO8p4f85aV3NyRE3s5xW+Yqd4EKCf2K24t4+MlGnOQk0w4tYxqUIMym4XHjNMa5Eb+i5NcEK/5tEydrtGJ1NSHOcMoFHq9QsEwckPddOZnDshJu3MZ3VWaexEh6gOjV9e01aaA9aum1XvGQN/XE7kj3LKnebQMRbtY7oLTLoC1X1AYmNt4Fzmxd7zLNXS7ZDLjfv3w8rmqXfbHNryrXFBa3kcZ7OhC4Aa0a6FWjddHcnc5sU+8yuumK3gj13N1xIOxWs+t7suQnIwyXq9U3Ew3kxldIp/o1d6IdA0sF5SitwHyEienepzXSOFhOYm3sqOKnhnTbbCohT8wcm9lr6NqfkO9xJ8qO9+KtuOp2zF3o8yIYf2k1kLYvZS96jy8vF/GizwSKWHsZfaxPbdd9Pe3Hz99bjQ+vKTRaHz5evsn45oVxs4+tqv2HZfbr58bcvScJLqO9QdZ7ubbTYnhq9cQ/V5mnckUNuX+1PgQtaHtkWX5/H6apddjrtUUI324rndDPsC26fOzCq2+I4J0xgu1Ol4W/Aupt5t7rY92p7SNUwTLznihGmR8+fhFRrhf9Oe0ePhSFdnmvsPY7acPaPgSH823KzTfIgW2DFPHaH9+bVDBV5W/u6DAx8GWYZm2V/76jO8Vm10mXYP/LiVolBE71GVvTrsM8HXh0R0fn4Bl71CO7dm7c5lNbnX8Pb7jwbILZao1SGmWZ5db+O4Ua49PADnpmSJ+v6DSvo96kVtNs8A2fK0M2oU0dhGy0u56ctPZE/B9SRCucHYe8uXFirPHO7Acaecjty7WO1y/Y2aQKLvESb6sO8qeSGPosF2a3XOSW3VfYMb3+DWKDu7tXeS5ya26TzF0eCKzjOi+P9b0cCdytGcRdtQjtmV32zCoTLnKo3IeM8qUrnB0oXx4TiDNeF2iazmm6LiR3YpydfC2muXZ6Gh5JIG8ToXD28GVBd9GR8rJTQlLV8QDLXPRPYocPcSsWsbpKzTvOMIp5DR0521JacazXSjkVHTHnexm/khyuqor+2XnWnQqOSV9v+zNOY1clt3+NZ3coqNHR4ey44suW6t0y3XSQ3xKuUUXFRKkfXfDoLJAyYm6O5/OLpqV7Ky96Ead9LRyYk+UaqlJC1l7Zef8QBM3pp/Pt571s4vuHp5e/pJEqojC7xw5kdqoRZf5bHcCTu7AO/8mf8EmJ4nXipgLVty6UCuYi9R5hYLM8O3/d84ut/CdFqLsWxdqFtEv+Znzt5MW3OQktTRY+K2OIeML4Jaj84MtLE1fP7hnOZm9w01jH2MkeHxxu/ik9RMKBznGbh9jKmC/3B/olpf/v5ouc5GTnrmC6MVNs2eh+1G37f7dyARI5iWPRDrAWp79rAzY6nNgRcV6NOQmJ098QMtsml2aQkV3bRcrlQU/ObyEqrzuF0h3AP0OXgpqcpRH4kDZlcmaXrl3p8NF552Ue9k31yk0wNxT7crxSMJ9kNkcJWwCA8xd0PJIpOhOb63p0NgIjIx+BNiDf93EvgDogbc6OMa8jo4Avctz8ECmBNCRVe8yPjt4ortPftF0it3nt0b/D1f9DfY67jKVjzLCIAdH6JY0DZ5+zYk+D56edpVv7qbQHCb4IaaEncNI7jNHOToNmg70y2bSCz5VBz11TLj3i/1Ro+1Ol6FHU96BDkAqm/WvC+jZ9D7Qbgc6fWshBhpi5PNAp+wTqOi2FQHoCc86ERWcvAMt+G6uUsSSQJDtDq3CkNgPEEIPGwHaO/DJnq19DcTOAOkZllPqlEkg5Ns/n4fZj6E6esmWeGmC2djY3pHB7IItj3kn/dMnSteIjYG9fbAmNMas8sPfDydPyaSETRydRKk2aQmovaTi9u6jNEXJf/zuu7PH0+cTbFLYXBdbInL7ce+AMmJL5tySr/IOl7PvRVwE/Lapkt49E1NZUMixOfueYhsam/23DMyAsjPICZ07XGntn4gBys4i94PuUHSo7CxyH+jOx5BcTwoyyX2gH3ifRnbOWe4D/cCRO6l9qGUY5dzpSuvQmeTmgdOCrHLudJfXrzgfRmaWc6e7HEh2bBl2OWe64nqE3WGU+eFnZjlfuuJyGnnZ7runwL3IudLh9wzt/CyVJzlXOuLtThdz26kib3KudMw7tWZ5XnKedNxb2Gbr01xe5Rzp2PfHvfSMZzkvugL8hIk9WcvuXc6JrlC9f42MkRzkfOhKme7ta9I/f3uXc6GTKRcN3MrT6VugKwrLiwaTz2dHp5NmYXsHgufCe6TTjCx7OXk8Ip2hy+1JPnvBe6GLLc8vLUuePJ69C5oultE/Tu2Of3pg1LPRxXJrwu+dt8mTh8dv9Hz6hTtRLF9NUpxfvJp8ej49ffz27d07/CfAV91aMy23rtLF6xrHF5duIiWfTp4fHk7xKaaRKRaL16laKeHb+7TXnwCdBDo+m8OECRMmTJgwYcKECRMmTJgw/5f8CwkkZNL4+WFLAAAAAElFTkSuQmCC;" parent="1" vertex="1">
          <mxGeometry x="841" y="206" width="73" height="73" as="geometry" />
        </mxCell>
        <mxCell id="yoXyc7ZYWqOekjBNXndq-17" value="" style="shape=image;verticalLabelPosition=bottom;labelBackgroundColor=default;verticalAlign=top;aspect=fixed;imageAspect=0;image=data:image/png,iVBORw0KGgoAAAANSUhEUgAAAHcAAAB3CAMAAAAO5y+4AAAAbFBMVEX///8AgP8Aef8AfP8Afv8Adv8Ac//7/v/0+P93qv+10P8Acf+Xvv/w9v/Z6P/7/P+lxP/o8f87kf8thf+Gsf83iv9dmv/j7v+/2P/U4v9lo/+Ot/9vpf/O3/+uyv+FtP8Aa/9Rlf8AZf/L2v+oho8aAAAGJklEQVRoge2a24KDKAyGMQGL4pniqdaO2/d/xwVtldrO1K7O3Kz/zRwKfgZCSKCE7Nq1a9euXbs+Ulz4gVfneV43J7/gfwPlbSMFA6RGiEw4dZL+OrVqGKPOoyiIzP9V6lkJdF6JMpb8GrXI3bmplsA5/w62hde2TjZ78fZUXrMfqb3JWbQ1tsjgLdZx0Cm3xUby5zEexxo2dezU+cGhHsW2tFi+wOqYga/ext1ujvP5ICMIJ288L3dc9jQBuJVXB+7jg4E1/j0ox+URZwEM822wkXikYnB4bOCrxyXmtptwswdzmBc+N0ngoQ190eRjtbYxFF+vk0jZ0wyX9ViubKzznbPyzAbTYjU3sc3F758XK2uo4bQWG9uzy37acULbYLU2CTmzxVb4VgRfHbW8yQqq3rTtprZYr8PaXgXvbIgsg1cOdAXLzdUGT74A1SqutXjZ+x3Ot1qvi1nW9Drv12RhrThvFXdaRbT7rHm2BnuQ04QdF7S3hkeu4YbWilwyYYnl0Wv2hoKOcq8L2pdWlFlTuxTZKLVkYVjRbYOtYbmulr1/yfU3GudPFUx+Jf+oLO5VT4HyfVTdTtYuQjdKKhfJ2kXWZxwz+ZOeVtZx4rIly/0TIbvrK5h9ZEW37ZeRFbHn3JO1WS/ZRTbiFnZ+tfa0Iy4HjVH+e66dyK6OkimC0deYwX7L9SxzsVmJJenAcUff/Y57svN7ti67+oB7eSgrVmaxi7lp/nDqwtaX/Eu4ces8FP1blIPvuWEyK7up3OCgIaWDP49cB+4SAUmrIHfn56Rik4OVQy9SDyNJITzcRYJ/hAtPRzrupgekN64D1naevDrCY0vy3e25bF2d8F+5G1u7kEuftqg/4YLc+DR2EZey+hdS1xqGcoV9w6WgtjdW66hu5cpLLoLc5mxwkQYuRebWv2Lrt1zBXMGy059CtaLWP/9lFbRr167/ua6tUXnPF0tvlg2evZdhMEqSoVQ7lJe6Pn1+5dy4oGtoQJmY26hCAHv4OJTA0j6rfOzmi6/+BUsJgLp2+/jm10NHSocBZZl+fqqz4RmXgTZMqVni5EN//5i4FFBJQPrpwYKHMkqLKpCInc7zr6dZ5RpdzBgCzPLEgVu6uiiJwjBqwGGflbya208Uz6i51+NxX2TE6bkgPAzNPziJD4hNHJpPeBSFI5dLer84CdjtOjJOo1uNHhfRfbcKb7045ySNioPFJRGjOeEKTMkcdcIVdc6ymOSg+tN+Xa9EJPZACGjSG9d3cSzBciqMwa0SguXmt1IK4fa/hTXTvcy94oWq2hXCOMPIJZKqcOBGoJMIPeXUcFHpDb7/hkZ00HDGUL/JwG0QxvOHkoEuUE6CgnZSdtaOR427OiEJtd+ZXp3OltDRD0aKscXN0Uk11zMnFRAUVTdyixJpfi45qb+SMPUAyoGb08kJY6FtL10qz2nCZMEd6lRhgHAih/yr5WmOcNZcmkVpA9Ba3I7euBVg771w5xKCt3uKMwl5aNLz19wcqZlSPZl6CsoDJ13f2/QqkCWaayaDO/r5E9ehivdcHwZvaXDO5UfUK90cAvZcD2HMc656nA9qvOu+wPAFACpTEnpDL8M1+TfP9NMmvwJakzv3+pqrAHQmN3LnfhXK8WSjDwtGKo116HEFDFw0XGVxY0XdcuBGwzgfcD7OpYAgLVp65z6tIzVcqumlp//W6zoMCzPkkKRFgk/cQn/cKoScDFySIQZFlNtc2vGYtCD0O1Z45w5xQ3ev6iFunAC1Ux+8nEesf3c/K0gAQi/YK8y5jpKSMcq68M6tes+f1pHxdaq6tBI0OzZ0HGdjpl5aujvS/tYylfrtvQzEhWin7bwcWKdHiWYXXV89chvWH1ag0x8PcOnWfdzQnpB1Zn47Zm6gKvMiBamZ/iGpfuy4L9DbvjBEyUiah7E6JjzvHyz1Rpf3vVAE5Oia+kpDGlImRv5tO4nbxLw3J2FV6OHWI+8nfeWT+v3G53tNy9vkPO2DpDzWdTDug3Fbd8fr7YPc8/ttzPc8X/eqyDVJ4hHyrEgkgxdtfWj+RohMebnrsC2+h/GB0s7tJ/2Xvrj2g0qvboI/tnbXrl27du363+hfZNpZriQeTJcAAAAASUVORK5CYII=;" parent="1" vertex="1">
          <mxGeometry x="933" y="189" width="85" height="85" as="geometry" />
        </mxCell>
        <mxCell id="yoXyc7ZYWqOekjBNXndq-18" value="Crossplane Manifests" style="text;html=1;strokeColor=none;fillColor=none;align=center;verticalAlign=middle;whiteSpace=wrap;rounded=0;fontSize=20;" parent="1" vertex="1">
          <mxGeometry x="68.5" y="125" width="241" height="30" as="geometry" />
        </mxCell>
        <mxCell id="yoXyc7ZYWqOekjBNXndq-21" value="" style="endArrow=classic;html=1;rounded=0;fontSize=20;exitX=0;exitY=0.5;exitDx=0;exitDy=0;" parent="1" source="yoXyc7ZYWqOekjBNXndq-2" edge="1">
          <mxGeometry width="50" height="50" relative="1" as="geometry">
            <mxPoint x="566" y="388" as="sourcePoint" />
            <mxPoint x="257" y="220" as="targetPoint" />
          </mxGeometry>
        </mxCell>
        <mxCell id="yoXyc7ZYWqOekjBNXndq-22" value="" style="endArrow=classic;html=1;rounded=0;fontSize=20;" parent="1" target="yoXyc7ZYWqOekjBNXndq-8" edge="1">
          <mxGeometry width="50" height="50" relative="1" as="geometry">
            <mxPoint x="256" y="219" as="sourcePoint" />
            <mxPoint x="509" y="338" as="targetPoint" />
            <Array as="points">
              <mxPoint x="309" y="221" />
            </Array>
          </mxGeometry>
        </mxCell>
        <mxCell id="yoXyc7ZYWqOekjBNXndq-23" value="" style="endArrow=classic;html=1;rounded=0;fontSize=20;exitX=0.07;exitY=0.975;exitDx=0;exitDy=0;exitPerimeter=0;" parent="1" source="yoXyc7ZYWqOekjBNXndq-10" edge="1">
          <mxGeometry width="50" height="50" relative="1" as="geometry">
            <mxPoint x="459" y="388" as="sourcePoint" />
            <mxPoint x="837" y="209" as="targetPoint" />
          </mxGeometry>
        </mxCell>
        <mxCell id="yoXyc7ZYWqOekjBNXndq-24" value="Devops&lt;br&gt;Engineer" style="shape=umlActor;verticalLabelPosition=bottom;verticalAlign=top;html=1;outlineConnect=0;fontSize=20;fillColor=#fff2cc;strokeColor=#d6b656;" parent="1" vertex="1">
          <mxGeometry x="-180" y="195" width="30" height="60" as="geometry" />
        </mxCell>
        <mxCell id="yoXyc7ZYWqOekjBNXndq-25" value="" style="endArrow=classic;html=1;rounded=0;fontSize=20;entryX=0;entryY=0.5;entryDx=0;entryDy=0;" parent="1" source="yoXyc7ZYWqOekjBNXndq-24" target="yoXyc7ZYWqOekjBNXndq-1" edge="1">
          <mxGeometry width="50" height="50" relative="1" as="geometry">
            <mxPoint x="417" y="388" as="sourcePoint" />
            <mxPoint x="132" y="299" as="targetPoint" />
          </mxGeometry>
        </mxCell>
        <mxCell id="yoXyc7ZYWqOekjBNXndq-28" value="" style="shape=image;html=1;verticalAlign=top;verticalLabelPosition=bottom;labelBackgroundColor=#ffffff;imageAspect=0;aspect=fixed;image=https://cdn0.iconfinder.com/data/icons/phosphor-fill-vol-3/256/number-square-one-fill-128.png;fontSize=20;" parent="1" vertex="1">
          <mxGeometry x="-43" y="193" width="34" height="34" as="geometry" />
        </mxCell>
        <mxCell id="yoXyc7ZYWqOekjBNXndq-29" value="" style="shape=image;html=1;verticalAlign=top;verticalLabelPosition=bottom;labelBackgroundColor=#ffffff;imageAspect=0;aspect=fixed;image=https://cdn0.iconfinder.com/data/icons/phosphor-fill-vol-3/256/number-square-two-fill-128.png;fontSize=20;" parent="1" vertex="1">
          <mxGeometry x="336" y="222" width="33" height="33" as="geometry" />
        </mxCell>
        <mxCell id="yoXyc7ZYWqOekjBNXndq-30" value="" style="shape=image;html=1;verticalAlign=top;verticalLabelPosition=bottom;labelBackgroundColor=#ffffff;imageAspect=0;aspect=fixed;image=https://cdn0.iconfinder.com/data/icons/phosphor-fill-vol-3/256/number-square-three-fill-128.png;fontSize=20;" parent="1" vertex="1">
          <mxGeometry x="717" y="155" width="34" height="34" as="geometry" />
        </mxCell>
        <mxCell id="yoXyc7ZYWqOekjBNXndq-34" value="1. DevOps Engineer pushing crossplane manifests to a Git repository" style="text;html=1;strokeColor=none;fillColor=none;align=center;verticalAlign=middle;whiteSpace=wrap;rounded=0;fontSize=15;fontColor=#000000;" parent="1" vertex="1">
          <mxGeometry x="-441" y="421" width="950" height="30" as="geometry" />
        </mxCell>
        <mxCell id="yoXyc7ZYWqOekjBNXndq-35" value="2. GitOps instance configured to watch the Git repository to deploy the manifests into OpenShift cluster.&amp;nbsp;&amp;nbsp;&amp;nbsp;&amp;nbsp;&amp;nbsp;&amp;nbsp;&amp;nbsp;&amp;nbsp;&amp;nbsp;&amp;nbsp;&amp;nbsp;&amp;nbsp;&amp;nbsp;&amp;nbsp;&amp;nbsp; " style="text;html=1;strokeColor=none;fillColor=none;align=center;verticalAlign=middle;whiteSpace=wrap;rounded=0;fontSize=15;fontColor=#000000;" parent="1" vertex="1">
          <mxGeometry x="-298" y="444" width="950" height="30" as="geometry" />
        </mxCell>
        <mxCell id="yoXyc7ZYWqOekjBNXndq-36" value="3. Crossplane Operator Instance creates infrastructure on the cloud provider as per the deployed manifest.&amp;nbsp;&amp;nbsp;&amp;nbsp;&amp;nbsp;&amp;nbsp;&amp;nbsp;&amp;nbsp;&amp;nbsp;&amp;nbsp; " style="text;html=1;strokeColor=none;fillColor=none;align=center;verticalAlign=middle;whiteSpace=wrap;rounded=0;fontSize=15;fontColor=#000000;" parent="1" vertex="1">
          <mxGeometry x="-298" y="468" width="950" height="30" as="geometry" />
        </mxCell>
      </root>
    </mxGraphModel>
  </diagram>
</mxfile>
